<svg xmlns="http://www.w3.org/2000/svg" width="900" height="900" viewBox="0 0 900 900"><g fill="none" fill-rule="evenodd"><path fill="#000" d="M0,450 L0,900 L450,900 L900,900 L900,450 L900,0 L450,0 L0,0 L0,450 Z M881.751,449.75 L881.5,881.5 L449.75,881.751 L18,882.002 L18,450.001 L18,18 L450.001,18 L882.002,18 L881.751,449.75 Z M251.302,71.56 C247.893,72.307 242.452,74.257 239.212,75.893 C235.972,77.529 231.253,80.877 228.725,83.333 C226.198,85.789 222.746,90.541 221.054,93.892 C219.362,97.244 217.215,102.577 216.283,105.743 C214.782,110.84 214.548,119.037 214.241,177.252 C213.943,233.776 214.116638,244.291 215.476,252.17 C216.409,257.574 218.343,264.027 220.19,267.897 C221.912,271.507 225.492,276.755 228.145,279.56 C230.798,282.365 235.338,285.82 238.234,287.238 C241.13,288.656 246.265,290.533 249.644,291.408 C253.437,292.391 259.96,293 266.684,293 C273.128,293 279.926,292.389 283.32,291.505 C286.478,290.682 290.96,289.048 293.28,287.872 C295.601,286.696 299.258,284.35 301.406,282.659 C303.554,280.968 307.005,276.966 309.073,273.765 C311.142,270.564 313.876,265.145 315.148,261.723 L317.462,255.5 L317.769,185.368 C318.029,126.027 317.845,114.13 316.576,108.04 C315.75,104.082 314.006,98.508 312.699,95.653 C311.392,92.798 307.798,87.735 304.712,84.403 C300.639,80.003 297.239,77.488 292.301,75.222 C288.561,73.505 282.575,71.632 279,71.058 C275.425,70.484 269.125,70.057 265,70.108 C260.875,70.159 254.711,70.812 251.302,71.56 Z M101,181.5 L101,291 L146.5,291 L192,291 L192,275.5 L192,260 L163.5,260 L135,260 L135,166 L135,72 L118,72 L101,72 L101,181.5 Z M341.4,74.75 C341.707,76.263 349.169,124.525 357.983,182 C366.796,239.475 374.239,287.512 374.523,288.75 L375.038,291 L400.519,291 C414.534,291 426,290.753 426,290.45 C426,290.148 433.425,241.905 442.5,183.243 C451.575,124.581 459,75.554 459,74.293 C459,72 458.993,72 443.5,72 C434.975,72 428.011,72.338 428.025,72.75 C428.038,73.162 422.335,112.65 415.35,160.5 C408.366,208.35 402.392,247.815 402.076,248.199 C401.759,248.584 395.714,209.434 388.642,161.199 C381.57,112.965 375.581,73.162 375.333,72.75 C375.085,72.338 367.223,72 357.862,72 L340.841,72 L341.4,74.75 Z M485,181.49 L485,291 L532,291 L579,291 L579,275.5 L579,260 L549,260 L519,260 L519,228 L519,196 L542.5,196 L566,196 L566,180.518 L566,165.037 L542.75,164.768 L519.5,164.5 L519.5,134 L519.5,103.5 L549.276,103.235 L579.052,102.97 L578.776,87.735 L578.5,72.5 L531.75,72.24 L485,71.98 L485,181.49 Z M275.015,103.25 C277.644,104.582 280.279,106.927 281.477,109 C283.443,112.401 283.509,114.372 283.815,178.5 C284.031,223.974 283.786,246.086 283.027,249.599 C282.327,252.836 280.934,255.643 279.212,257.286 C277.72,258.709 275.233,260.351 273.685,260.936 C272.137,261.521 268.631,262 265.895,262 C262.843,262 259.357,261.203 256.876,259.937 C253.896,258.416 252.262,256.64 250.666,253.187 C248.514,248.531 248.5,248.062 248.5,183 C248.5,146.975 248.855,115.826 249.29,113.779 C249.724,111.733 251.277,108.636 252.74,106.897 C254.204,105.158 256.773,103.137 258.45,102.407 C260.128,101.676 263.542,101.061 266.038,101.038505 C268.829,101.015 272.285,101.866 275.015,103.25 Z M284.5,337.626 C283.4,337.842 280.025,338.519 277,339.129 C273.975,339.74 269.25,341.374 266.5,342.761 C263.75,344.149 260.008,346.421 258.184,347.811 C256.36,349.201 253.091,352.819 250.92,355.852 C248.748,358.884 245.748,364.996 244.251,369.433 L241.531,377.5 L241.213,444.256 C240.951,499.354 241.151,512.491 242.357,519.479 C243.16,524.135 245.271,531.099 247.048,534.953 C249.29,539.818 252.007,543.61 255.934,547.355 C259.044,550.322 263.482,553.716 265.796,554.896 C268.11,556.076 272.815,557.767 276.251,558.653 C280.024,559.625 286.661,560.271 293,560.283175 C299.535,560.295 305.854,559.688 309.735,558.676 C313.164,557.781 318.285,555.876 321.115,554.442 C323.946,553.007 328.376,549.719 330.961,547.134 C333.546,544.549 337.09,539.524 338.837,535.967 C340.584,532.41 342.677,526.35 343.489,522.5 C344.705,516.733 344.968,503.687 344.983,448.41 C344.999,385.317 344.885,380.869 343.065,373.756 C342.001,369.596 339.931,363.824 338.464,360.93 C336.998,358.035 333.481,353.353 330.649,350.525 C327.817,347.697 322.961,344.143 319.858,342.627 C316.754,341.111 310.679,339.24 306.358,338.47 C302.036,337.7 295.8,337.106 292.5,337.151 C289.2,337.196 285.6,337.409 284.5,337.626 Z M101,449 L101,558 L116.529,558 L132.058,558 L131.779,479.57 C131.626,436.434 131.788,401.671 132.14,402.32 C132.491,402.969 142.154,438.262 153.611,480.75 L174.443,558 L192.221,558 L210,558 L210,449 L210,340 L194.5,340 L179,340 L178.94,404.75 L178.88,469.5 L162.103,407.5 C152.876,373.4 145.019,344.262 144.644,342.75 L143.962,340 L122.481,340 L101,340 L101,449 Z M368,355.5 L368,371 L386,371 L404,371 L404,464.5 L404,558 L421,558 L438,558 L438,464.523 L438,371.046 L455.75,370.773 L473.5,370.5 L473.776,355.25 L474.052,340 L421.026,340 L368,340 L368,355.5 Z M299.168,369.03 C301.209,369.597 304.184,371.584 305.876,373.511 C307.548,375.416 309.4,378.772 309.992,380.97 C310.723,383.685 310.977,406.21 310.784,451.233 C310.509,515.431 310.438,517.606 308.5,520.895 C307.4,522.763 305.34,525.155 303.923,526.212 C302.505,527.268 299.611,528.524 297.49,529.002 C295.37,529.48 291.64,529.499 289.2,529.043 C286.76,528.587 283.579,527.349 282.132,526.292 C280.684,525.236 278.6,522.6 277.5,520.435 C275.559,516.616 275.5,514.522 275.5,449.5 C275.5,397.795 275.791,381.682 276.773,378.915 C277.473,376.943 279.273,374.187 280.773,372.79 C282.273,371.393 284.85,369.779 286.5,369.204 C288.15,368.629 290.85,368.125 292.5,368.085 C294.15,368.044 297.15,368.47 299.168,369.03 Z M101,716 L101,825 L118,825 L135,825 L135,780 L135,735 L157.5,735 L180,735 L180,719.5 L180,704 L157.5,704 L135,704 L135,671 L135,638 L163.5,638 L192,638 L192,622.5 L192,607 L146.5,607 L101,607 L101,716 Z M218,716 L218,825 L265.026,825 L312.052,825 L311.776,809.75 L311.5,794.5 L281.75,794.235 L252,793.97 L252,761.985 L252,730 L275.5,730 L299,730 L299,714.5 L299,699 L275.5,699 L252,699 L252,668.5 L252,638 L282,638 L312,638 L312,622.5 L312,607 L265,607 L218,607 L218,716 Z M364.051,633.233 C361.73,647.68 353.893,696.625 346.636,742 L333.441,824.5 L348.861,824.776 C357.342,824.928 364.405,824.928 364.556,824.776 C364.708,824.624 366.098,815.837 367.646,805.25 L370.461,786 L391.685,786 L412.909,786 L413.462,789.25 C413.765,791.038 414.92,798.8 416.028,806.5 C417.136,814.2 418.267,821.513 418.54,822.75 C419.033,824.975 419.223,825 436.019,825 C451.551,825 452.994,824.851 452.931,823.25 C452.892,822.288 445.126,773.35 435.672,714.5 L418.483,607.5 L393.377,607.233 L368.272,606.966 L364.051,633.233 Z M479,716 L479,825 L496,825 L513,825 L513,780.349 L513,735.698 L522.553,736.326 C528.537,736.719 533.709,737.662 536.395,738.851 C538.754,739.894 541.604,742.042 542.729,743.624 C543.853,745.206 545.323,748.3 545.994,750.5 C546.771,753.043 547.494,766.521 547.979,787.5 C548.398,805.65 549.077,821.513 549.487,822.75 C550.223,824.969 550.473,825 567.725,825 L585.217,825 L584.477,822.25 C584.07,820.737 583.366,817.7 582.912,815.5 C582.458,813.3 582.059,799.8 582.024,785.5 C581.989,771.2 581.512,756.35 580.963,752.5 C580.415,748.65 579.029,742.664 577.884,739.198 C576.739,735.732 574.366,731.007 572.61,728.698 C570.855,726.389 567.175,723.15 564.432,721.5 L559.447,718.5 L563.951,715.5 C566.428,713.85 570.076,710.344 572.057,707.708 C574.039,705.072 576.749,699.897 578.08,696.208 C580.386,689.815 580.5,688.374 580.5,665.5 C580.5,645.276 580.221,640.62 578.724,635.905 C577.747,632.828 575.595,628.176 573.941,625.569 C572.288,622.961 569.487,619.467 567.717,617.804 C565.948,616.141 562.025,613.659 559,612.289 C555.975,610.918 550.575,609.176 547,608.416 C542.287,607.414 532.045,607.03 509.75,607.017 L479,607 L479,716 Z M539.681,640.605 C541.231,641.762 543.4,644.237 544.5,646.105 C546.275,649.118 546.537,651.653 546.825,668.615 C547.022,680.217 546.726,689.305 546.071,691.735 C545.478,693.937 544.052,696.935 542.902,698.397 C541.752,699.859 539.071,701.943 536.945,703.028 C533.858,704.603 531.059,705 523.04,705 L513,705 L513,671.416 L513,637.833 L524.931,638.166 C535.181,638.453 537.258,638.796 539.681,640.605 Z M399.989,700.924 C404.395,730.228 408,754.608 408,755.102 C408,755.596 400.585,756 391.5,756 C382.425,756 375,755.821 375,755.602 C375,755.383 378.6,731.262 383,702 C387.4,672.738 391,648.317 391,647.731 C391,647.146 391.22,646.887 391.489,647.155 C391.757,647.424 395.582,671.62 399.989,700.924 Z"></path><path fill="#B81F2C" d="M672.272,104.437 C669.397,105.134 664.011,107.197 660.303,109.022 C655.779,111.25 651.247,114.668 646.519,119.42 C641.899,124.064 638.388,128.736 636.315,133 C634.577,136.575 632.445,142.265 631.577,145.644 C630.71,149.024 630,155.259 630,159.5 C630,163.741 630.713,169.976 631.585,173.356 C632.457,176.735 634.815,182.65 636.825,186.5 C639.984,192.551 645.846,198.993 680.049,234 C701.813,256.275 720.686,275.738 721.99,277.25 C723.294,278.762 724.867,280 725.485,280 C726.104,280 739.434,266.837 755.108,250.75 C770.782,234.662 789.883,214.975 797.554,207 C806.894,197.289 812.546,190.518 814.666,186.5 C816.407,183.2 818.545,177.735 819.416,174.356 C820.287,170.976 821,164.208 821,159.316 C821,154.423 820.321,147.815 819.492,144.631 C818.663,141.447 816.756,136.334 815.255,133.269 C813.754,130.203 809.498,124.453 805.796,120.489 C801.162,115.527 796.922,112.156 792.18,109.664 C788.393,107.674 782.415,105.367 778.897,104.537 C775.379,103.708 769.8,103.03 766.5,103.03 C763.2,103.03 757.621,103.708 754.103,104.537 C750.585,105.367 744.732,107.608 741.098,109.518 C737.463,111.428 732.588,114.836 730.265,117.091 L726.041,121.191 L720.77,116.54 C717.872,113.983 712.35,110.384 708.5,108.542 C704.65,106.701 699.115,104.7 696.201,104.097 C693.286,103.494 687.886,103.038 684.201,103.085 C680.515,103.132 675.147,103.74 672.272,104.437 Z"></path></g></svg>